<svg width="57" height="56" viewBox="0 0 57 56" fill="none" xmlns="http://www.w3.org/2000/svg">
<circle opacity="0.2" cx="28.5" cy="28" r="28" fill="#66CD6A"/>
<circle cx="28.5" cy="28" r="16" fill="#66CD6A"/>
<path d="M27.0794 31.7499C26.8805 31.7498 26.6897 31.667 26.5491 31.5197L23.7178 28.5585C23.5783 28.4108 23.5 28.2115 23.5 28.0039C23.5 27.7963 23.5783 27.597 23.7178 27.4493C24.0079 27.1459 24.4882 27.1459 24.7783 27.4493L27.0794 29.856L32.2218 24.4776C32.512 24.1741 32.9922 24.1741 33.2823 24.4776C33.5725 24.781 33.5725 25.2833 33.2823 25.5868L27.6096 31.5197C27.4691 31.667 27.2783 31.7498 27.0794 31.7499Z" fill="white"/>
</svg>
