<svg width="327" height="200" viewBox="0 0 327 200" fill="none" xmlns="http://www.w3.org/2000/svg">
<rect width="327" height="200" fill="#DADADA"/>
<path d="M155.393 88.1488L155.392 88.1488L155.398 88.1557C156.621 89.6561 158.127 90.5727 159.697 90.4179C161.257 90.291 162.605 89.1762 163.556 87.47L163.556 87.4689L168.596 78.3756L168.597 78.3753C170.627 74.7047 173.253 72.9388 176.001 73.0593C178.718 73.2059 181.151 75.2466 182.82 79.1041C182.82 79.1044 182.82 79.1047 182.82 79.105L191.166 98.5967L191.166 98.5973C192.646 102.042 192.29 105.971 190.221 109.112L190.221 109.112L190.218 109.117C188.178 112.305 184.711 114.167 180.959 114.167H146.906C143.025 114.167 139.48 112.202 137.438 108.885C135.396 105.565 135.217 101.535 136.953 98.0359C136.953 98.0358 136.953 98.0357 136.954 98.0355L141.54 88.8368C142.976 85.9631 145.248 84.2343 147.733 83.9636C150.215 83.6933 152.806 84.9162 154.808 87.4043L155.393 88.1488ZM144.22 90.2002L144.218 90.2035L139.633 99.4009C139.633 99.4013 139.632 99.4017 139.632 99.4021C138.353 101.932 138.497 104.916 139.972 107.327C141.451 109.745 144.067 111.193 146.906 111.193H180.932C183.714 111.193 186.191 109.855 187.723 107.528C189.255 105.203 189.512 102.412 188.405 99.8552C188.405 99.8549 188.405 99.8547 188.404 99.8544L180.06 80.3654C180.059 80.365 180.059 80.3647 180.059 80.3643C179.536 79.126 178.9 78.1021 178.195 77.3726C177.497 76.6488 176.692 76.1761 175.838 76.1405C175.029 76.0912 174.188 76.4937 173.421 77.1368C172.641 77.7908 171.879 78.7418 171.217 79.914L171.215 79.9175L166.176 89.0097C166.176 89.0099 166.175 89.0102 166.175 89.0104C164.692 91.6694 162.398 93.2788 159.956 93.5017C157.514 93.6981 154.974 92.5171 153.058 90.1161C153.057 90.1157 153.057 90.1152 153.057 90.1147L152.474 89.3737C151.3 87.8367 149.889 86.9666 148.426 86.9666C148.421 86.9666 148.416 86.9665 148.411 86.9665C148.32 86.9664 148.177 86.9663 148.023 86.9991C146.461 87.1705 145.13 88.4078 144.22 90.2002Z" fill="#878787" stroke="#DADADA"/>
<path d="M150.586 76.8333C145.368 76.8333 141.086 72.5762 141.086 67.3333C141.086 62.0894 145.342 57.8333 150.586 57.8333C155.83 57.8333 160.086 62.0894 160.086 67.3333C160.086 72.5771 155.83 76.8333 150.586 76.8333ZM150.586 60.8333C147.003 60.8333 144.086 63.7504 144.086 67.3333C144.086 70.9161 147.003 73.8333 150.586 73.8333C154.169 73.8333 157.086 70.9161 157.086 67.3333C157.086 63.7504 154.169 60.8333 150.586 60.8333Z" fill="#878787" stroke="#DADADA"/>
<path d="M114.157 140C113.467 140 112.916 139.865 112.505 139.594C112.104 139.314 111.88 138.95 111.833 138.502C111.787 138.306 111.763 137.998 111.763 137.578H112.743C112.743 137.867 112.762 138.101 112.799 138.278C112.837 138.474 112.949 138.614 113.135 138.698C113.331 138.782 113.616 138.824 113.989 138.824H114.941C115.912 138.824 116.397 138.535 116.397 137.956C116.397 137.816 116.379 137.685 116.341 137.564C116.192 137.079 115.912 136.481 115.501 135.772C115.091 135.063 114.638 134.358 114.143 133.658L114.997 132.958C115.548 133.714 116.047 134.489 116.495 135.282C116.943 136.066 117.237 136.738 117.377 137.298C117.433 137.522 117.461 137.746 117.461 137.97C117.461 138.567 117.237 139.057 116.789 139.44C116.351 139.813 115.688 140 114.801 140H114.157ZM117.197 142.45L117.785 142.282C118.336 142.133 118.761 141.993 119.059 141.862C119.367 141.741 119.619 141.563 119.815 141.33C120.011 141.106 120.109 140.798 120.109 140.406C120.109 140.331 120.1 140.21 120.081 140.042L119.521 136.024L120.571 135.856L120.977 138.838L121.131 139.902C121.159 140.117 121.173 140.313 121.173 140.49C121.173 141.059 121.043 141.531 120.781 141.904C120.52 142.287 120.165 142.59 119.717 142.814C119.279 143.038 118.723 143.243 118.051 143.43L117.477 143.598L117.197 142.45ZM122.829 130.788L123.893 130.732L124.243 139.986L123.193 140.042L122.829 130.788ZM128.513 140C127.822 140 127.271 139.865 126.861 139.594C126.459 139.314 126.235 138.95 126.189 138.502C126.142 138.306 126.119 137.998 126.119 137.578H127.099C127.099 137.867 127.117 138.101 127.155 138.278C127.192 138.474 127.304 138.614 127.491 138.698C127.687 138.782 127.971 138.824 128.345 138.824H129.199C130.179 138.824 130.669 138.53 130.669 137.942C130.669 137.877 130.65 137.76 130.613 137.592V137.564L129.563 133.448L130.599 133.168L131.649 137.298C131.742 137.662 131.826 137.947 131.901 138.152C131.985 138.348 132.097 138.511 132.237 138.642C132.377 138.763 132.563 138.824 132.797 138.824H133.483L133.553 139.412L133.483 140H132.797C132.171 140 131.667 139.739 131.285 139.216C130.837 139.739 130.095 140 129.059 140H128.513ZM133.342 138.824H134.448C135.465 138.824 135.974 138.441 135.974 137.676C135.974 137.471 135.941 137.256 135.876 137.032L135.316 134.946L136.352 134.652L136.912 136.738C136.996 137.083 137.038 137.401 137.038 137.69C137.038 138.427 136.791 138.997 136.296 139.398C135.801 139.799 135.185 140 134.448 140H133.342V138.824ZM134.56 132.006H135.974V133.406H134.56V132.006ZM144.618 140C143.927 140 143.377 139.865 142.966 139.594C142.565 139.314 142.341 138.95 142.294 138.502C142.247 138.306 142.224 137.998 142.224 137.578H143.204C143.204 137.867 143.223 138.101 143.26 138.278C143.297 138.474 143.409 138.614 143.596 138.698C143.792 138.782 144.077 138.824 144.45 138.824H145.402C146.373 138.824 146.858 138.535 146.858 137.956C146.858 137.816 146.839 137.685 146.802 137.564C146.653 137.079 146.373 136.481 145.962 135.772C145.551 135.063 145.099 134.358 144.604 133.658L145.458 132.958C146.009 133.714 146.508 134.489 146.956 135.282C147.404 136.066 147.698 136.738 147.838 137.298C147.894 137.522 147.922 137.746 147.922 137.97C147.922 138.567 147.698 139.057 147.25 139.44C146.811 139.813 146.149 140 145.262 140H144.618ZM149.959 142.436C151.079 142.203 151.877 142.016 152.353 141.876C152.829 141.745 153.179 141.568 153.403 141.344C153.627 141.129 153.739 140.817 153.739 140.406C153.739 140.331 153.73 140.21 153.711 140.042V140H151.877C151.158 140 150.584 139.781 150.155 139.342C149.735 138.903 149.525 138.306 149.525 137.55C149.525 137.074 149.628 136.626 149.833 136.206C150.038 135.786 150.323 135.45 150.687 135.198C151.06 134.937 151.49 134.806 151.975 134.806C152.656 134.806 153.226 135.072 153.683 135.604C154.15 136.127 154.434 136.817 154.537 137.676L154.663 138.824H155.517L155.587 139.412L155.517 140H155.489H154.789C154.798 140.103 154.803 140.252 154.803 140.448C154.803 141.111 154.644 141.629 154.327 142.002C154.01 142.375 153.538 142.669 152.913 142.884C152.288 143.108 151.373 143.346 150.169 143.598L149.959 142.436ZM150.603 137.536C150.603 138.395 151.028 138.824 151.877 138.824H153.585L153.473 137.802C153.408 137.233 153.244 136.789 152.983 136.472C152.722 136.145 152.386 135.982 151.975 135.982C151.546 135.982 151.21 136.136 150.967 136.444C150.724 136.743 150.603 137.107 150.603 137.536ZM155.381 138.824H155.577C156.408 138.824 157.103 138.805 157.663 138.768C158.223 138.721 158.797 138.614 159.385 138.446L162.675 137.564L159.833 135.94C159.553 135.772 159.264 135.688 158.965 135.688C158.676 135.688 158.401 135.772 158.139 135.94C157.878 136.099 157.668 136.323 157.509 136.612L157.257 137.046L156.333 136.472L156.599 135.996C156.861 135.52 157.197 135.151 157.607 134.89C158.027 134.629 158.475 134.498 158.951 134.498C159.437 134.498 159.903 134.633 160.351 134.904L163.921 137.06L163.753 138.432L159.651 139.594C158.998 139.771 158.368 139.883 157.761 139.93C157.155 139.977 156.422 140 155.563 140H155.381V138.824ZM159.021 141.176H160.421V142.59H159.021V141.176ZM165.955 142.436C167.056 142.212 167.845 142.03 168.321 141.89C168.806 141.75 169.161 141.568 169.385 141.344C169.609 141.129 169.721 140.817 169.721 140.406C169.721 140.247 169.716 140.126 169.707 140.042L169.693 139.832C169.096 139.944 168.484 140 167.859 140C167.411 140 167.01 139.897 166.655 139.692C166.3 139.477 166.02 139.188 165.815 138.824C165.619 138.451 165.521 138.026 165.521 137.55C165.521 137.074 165.624 136.626 165.829 136.206C166.034 135.786 166.319 135.45 166.683 135.198C167.056 134.937 167.486 134.806 167.971 134.806C168.652 134.806 169.226 135.072 169.693 135.604C170.16 136.127 170.44 136.813 170.533 137.662L170.771 139.93C170.79 140.191 170.799 140.373 170.799 140.476C170.799 141.129 170.64 141.643 170.323 142.016C170.006 142.389 169.53 142.683 168.895 142.898C168.27 143.122 167.36 143.355 166.165 143.598L165.955 142.436ZM166.599 137.536C166.599 137.928 166.711 138.241 166.935 138.474C167.159 138.707 167.467 138.824 167.859 138.824C168.494 138.824 169.063 138.768 169.567 138.656L169.483 137.816C169.418 137.237 169.25 136.789 168.979 136.472C168.708 136.145 168.368 135.982 167.957 135.982C167.528 135.982 167.192 136.136 166.949 136.444C166.716 136.743 166.599 137.107 166.599 137.536ZM180.418 143.304C180.007 143.397 179.606 143.444 179.214 143.444C178.514 143.444 177.907 143.285 177.394 142.968C176.88 142.66 176.484 142.217 176.204 141.638C175.933 141.069 175.798 140.397 175.798 139.622C175.798 138.745 175.975 137.807 176.33 136.808L177.338 137.214C177.02 138.129 176.862 138.945 176.862 139.664C176.862 140.485 177.062 141.125 177.464 141.582C177.874 142.039 178.448 142.268 179.186 142.268C179.484 142.268 179.816 142.226 180.18 142.142C180.992 141.955 181.636 141.741 182.112 141.498C182.597 141.255 182.84 141.041 182.84 140.854C182.84 140.751 182.756 140.663 182.588 140.588C182.429 140.523 182.098 140.411 181.594 140.252L181.104 140.112C180.497 139.916 180.04 139.687 179.732 139.426C179.433 139.165 179.284 138.787 179.284 138.292C179.284 138.012 179.34 137.685 179.452 137.312C179.564 136.929 179.75 136.547 180.012 136.164C180.273 135.781 180.604 135.459 181.006 135.198C181.407 134.927 181.86 134.792 182.364 134.792C182.616 134.792 182.868 134.825 183.12 134.89L184.03 135.142L183.764 136.29L182.854 136.038C182.704 135.991 182.532 135.968 182.336 135.968C181.953 135.968 181.626 136.075 181.356 136.29C181.094 136.505 180.889 136.743 180.74 137.004C180.6 137.265 180.511 137.475 180.474 137.634C180.418 137.83 180.39 137.993 180.39 138.124C180.39 138.376 180.478 138.558 180.656 138.67C180.833 138.782 181.146 138.903 181.594 139.034C182.238 139.23 182.69 139.379 182.952 139.482C183.222 139.575 183.437 139.706 183.596 139.874C183.754 140.033 183.857 140.257 183.904 140.546C183.913 140.593 183.918 140.667 183.918 140.77C183.918 141.321 183.61 141.815 182.994 142.254C182.378 142.702 181.519 143.052 180.418 143.304ZM189.179 140C188.908 140 188.675 139.972 188.479 139.916C188.507 140.131 188.521 140.327 188.521 140.504C188.521 141.073 188.39 141.545 188.129 141.918C187.868 142.291 187.513 142.59 187.065 142.814C186.626 143.038 186.071 143.243 185.399 143.43L184.825 143.598L184.545 142.45L185.133 142.282C185.684 142.133 186.108 141.993 186.407 141.862C186.715 141.741 186.967 141.563 187.163 141.33C187.359 141.106 187.457 140.798 187.457 140.406C187.457 140.331 187.448 140.21 187.429 140.042L186.869 136.024L187.919 135.856L187.989 136.36C188.008 136.509 188.026 136.617 188.045 136.682L188.185 137.578C188.241 137.923 188.302 138.185 188.367 138.362C188.442 138.53 188.54 138.651 188.661 138.726C188.782 138.791 188.955 138.824 189.179 138.824H189.277L189.347 139.412L189.277 140H189.179ZM189.164 138.824H191.516C192.524 138.824 193.028 138.446 193.028 137.69C193.028 137.485 192.996 137.265 192.93 137.032L192.384 134.946L193.406 134.652L193.98 136.794C194.064 137.13 194.106 137.433 194.106 137.704C194.106 138.432 193.854 138.997 193.35 139.398C192.856 139.799 192.244 140 191.516 140H189.164V138.824ZM189.458 141.386H190.704V142.646H189.458V141.386ZM191.936 141.386H193.182V142.646H191.936V141.386ZM196.143 142.436C197.263 142.203 198.061 142.016 198.537 141.876C199.013 141.745 199.363 141.568 199.587 141.344C199.811 141.129 199.923 140.817 199.923 140.406C199.923 140.331 199.913 140.21 199.895 140.042V140H198.061C197.342 140 196.768 139.781 196.339 139.342C195.919 138.903 195.709 138.306 195.709 137.55C195.709 137.074 195.811 136.626 196.017 136.206C196.222 135.786 196.507 135.45 196.87 135.198C197.244 134.937 197.673 134.806 198.159 134.806C198.84 134.806 199.409 135.072 199.867 135.604C200.333 136.127 200.618 136.817 200.721 137.676L200.847 138.824H201.701L201.771 139.412L201.701 140H201.673H200.973C200.982 140.103 200.987 140.252 200.987 140.448C200.987 141.111 200.828 141.629 200.511 142.002C200.193 142.375 199.722 142.669 199.097 142.884C198.471 143.108 197.557 143.346 196.353 143.598L196.143 142.436ZM196.787 137.536C196.787 138.395 197.211 138.824 198.061 138.824H199.769L199.657 137.802C199.591 137.233 199.428 136.789 199.167 136.472C198.905 136.145 198.569 135.982 198.159 135.982C197.729 135.982 197.393 136.136 197.151 136.444C196.908 136.743 196.787 137.107 196.787 137.536ZM212.611 140C212.247 140 211.911 139.935 211.603 139.804C211.304 139.673 211.057 139.529 210.861 139.37C210.637 139.566 210.38 139.72 210.091 139.832C209.811 139.944 209.517 140 209.209 140H204.897C204.607 140 204.341 139.939 204.099 139.818C203.865 139.697 203.669 139.529 203.511 139.314C203.072 139.753 202.447 139.981 201.635 140H201.565V138.824H201.635C202.083 138.815 202.428 138.721 202.671 138.544C202.923 138.357 203.067 138.059 203.105 137.648L203.259 135.912L204.323 136.01L204.169 137.732V137.774C204.141 138.11 204.192 138.371 204.323 138.558C204.453 138.735 204.645 138.824 204.897 138.824H204.925L205.947 137.438C206.404 136.785 206.777 136.285 207.067 135.94C207.365 135.595 207.687 135.319 208.033 135.114C208.378 134.909 208.77 134.806 209.209 134.806C209.685 134.806 210.114 134.927 210.497 135.17C210.889 135.403 211.192 135.725 211.407 136.136C211.631 136.547 211.743 137.004 211.743 137.508C211.743 137.853 211.673 138.175 211.533 138.474C211.841 138.707 212.2 138.824 212.611 138.824H212.807L212.877 139.412L212.807 140H212.611ZM209.209 138.824C209.601 138.824 209.941 138.689 210.231 138.418C210.52 138.138 210.665 137.816 210.665 137.452C210.665 137.041 210.529 136.696 210.259 136.416C209.988 136.127 209.647 135.982 209.237 135.982C208.947 135.982 208.681 136.057 208.439 136.206C208.205 136.355 207.972 136.57 207.739 136.85C207.515 137.13 207.207 137.545 206.815 138.096L206.283 138.824H209.209ZM212.666 138.824H214.71C215.718 138.824 216.222 138.446 216.222 137.69C216.222 137.485 216.19 137.265 216.124 137.032L215.578 134.946L216.6 134.652L217.174 136.794C217.258 137.13 217.3 137.433 217.3 137.704C217.3 138.432 217.048 138.997 216.544 139.398C216.05 139.799 215.438 140 214.71 140H212.666V138.824ZM213.324 132.09H214.57V133.336H213.324V132.09ZM215.802 132.09H217.048V133.336H215.802V132.09Z" fill="#878787"/>
</svg>
