<svg width="52" height="60" viewBox="0 0 52 60" fill="none" xmlns="http://www.w3.org/2000/svg">
<ellipse cx="26.0009" cy="26.5572" rx="16" ry="16.3442" fill="#FF4332"/>
<path fill-rule="evenodd" clip-rule="evenodd" d="M32.8619 52.184C43.8918 49.109 52 38.8015 52 26.5594C52 11.891 40.3594 0 26 0C11.6406 0 0 11.891 0 26.5594C0 38.525 7.74615 48.6425 18.3954 51.9647C18.807 52.6313 19.2755 53.3682 19.7978 54.1896C22.0326 57.7043 23.15 59.4617 24.6649 59.8646C25.341 60.0443 26.0522 60.0443 26.7282 59.8646C28.2432 59.4617 29.3606 57.7043 31.5954 54.1896C32.0611 53.4572 32.484 52.7921 32.8619 52.184Z" fill="white"/>
<ellipse cx="25.9716" cy="26.5584" rx="23" ry="23.4948" fill="#FF4332"/>
<ellipse cx="25.8905" cy="26.4634" rx="6.9747" ry="7.12476" fill="white"/>
</svg>
