<svg width="57" height="56" viewBox="0 0 57 56" fill="none" xmlns="http://www.w3.org/2000/svg">
<g id="Frame 3979">
<g id="Group 240512">
<circle id="Ellipse 2160" opacity="0.2" cx="28.5" cy="28" r="28" fill="#E73F3F"/>
<circle id="Ellipse 2161" cx="28.5" cy="28" r="16" fill="#E73F3F"/>
<g id="Group 240514">
<path id="Vector" d="M24.5447 32.9841C24.2792 32.9841 24.0136 32.8863 23.804 32.6766C23.3987 32.2713 23.3987 31.6004 23.804 31.1951L31.7145 23.2846C32.1198 22.8793 32.7907 22.8793 33.196 23.2846C33.6013 23.6899 33.6013 24.3607 33.196 24.7661L25.2855 32.6766C25.0898 32.8863 24.8103 32.9841 24.5447 32.9841Z" fill="white"/>
<path id="Vector_2" d="M32.4553 32.9841C32.1897 32.9841 31.9242 32.8863 31.7145 32.6766L23.804 24.7661C23.3987 24.3607 23.3987 23.6899 23.804 23.2846C24.2093 22.8793 24.8802 22.8793 25.2855 23.2846L33.196 31.1951C33.6013 31.6004 33.6013 32.2713 33.196 32.6766C32.9864 32.8863 32.7208 32.9841 32.4553 32.9841Z" fill="white"/>
</g>
</g>
</g>
</svg>
