<svg width="476" height="256" viewBox="0 0 476 256" fill="none" xmlns="http://www.w3.org/2000/svg">
<g filter="url(#filter0_d_4185_71375)">
<path d="M69 67C69 59.4575 69 55.6863 71.3431 53.3431C73.6863 51 77.4575 51 85 51H380C387.542 51 391.314 51 393.657 53.3431C396 55.6863 396 59.4575 396 67V133C396 148.085 396 155.627 391.314 160.314C386.627 165 379.085 165 364 165H101C85.9151 165 78.3726 165 73.6863 160.314C69 155.627 69 148.085 69 133V67Z" fill="#101010" shape-rendering="crispEdges"/>
<mask id="mask0_4185_71375" style="mask-type:alpha" maskUnits="userSpaceOnUse" x="38" y="51" width="264" height="155">
<rect x="38" y="51" width="264" height="155" rx="8" fill="#0B1F51"/>
</mask>
<g mask="url(#mask0_4185_71375)">
<path opacity="0.5" d="M197.025 114.706C206.242 128.363 209.532 140.541 204.4 146.504C196.156 156.086 169.295 145.997 144.406 123.971C119.517 101.945 106.023 76.3222 114.268 66.7408C120.259 59.7785 136.08 63.2023 153.831 74.0454" stroke="white" stroke-opacity="0.2" stroke-width="0.571766"/>
<path d="M178.629 126.227C187.846 139.884 191.135 152.061 186.004 158.025C177.759 167.606 150.899 157.518 126.009 135.492C101.12 113.466 87.6269 87.8427 95.8715 78.2613C101.863 71.299 117.683 74.7228 135.434 85.5659" stroke="white" stroke-opacity="0.2" stroke-width="0.571766"/>
<path opacity="0.7" d="M212.977 104.723C222.194 118.38 225.483 130.557 220.351 136.521C212.107 146.102 185.246 136.014 160.357 113.988C135.468 91.9617 121.975 66.3388 130.219 56.7574C136.21 49.7951 152.031 53.2189 169.782 64.062" stroke="white" stroke-opacity="0.2" stroke-width="0.571766"/>
</g>
<path d="M85.995 65.7101H88.487L91.189 73.2701L93.863 65.7101H96.355V75.6641H94.465V73.5781L94.647 67.9921L91.805 75.6641H90.545L87.703 68.0061L87.885 73.5221V75.6641H85.995V65.7101ZM101.746 75.8041C101.065 75.8041 100.468 75.6594 99.9543 75.3701C99.441 75.0807 99.035 74.6701 98.7363 74.1381C98.447 73.5967 98.2883 72.9667 98.2603 72.2481V71.8701C98.2416 71.1887 98.363 70.5634 98.6243 69.9941C98.8856 69.4247 99.2823 68.9721 99.8143 68.6361C100.346 68.3001 100.99 68.1321 101.746 68.1321C102.446 68.1321 103.058 68.2907 103.58 68.6081C104.112 68.9161 104.518 69.3547 104.798 69.9241C105.088 70.4934 105.232 71.1561 105.232 71.9121V72.0521C105.232 72.8081 105.088 73.4707 104.798 74.0401C104.518 74.6001 104.112 75.0341 103.58 75.3421C103.058 75.6501 102.446 75.8041 101.746 75.8041ZM100.08 72.0521C100.08 72.8081 100.225 73.3867 100.514 73.7881C100.804 74.1894 101.214 74.3901 101.746 74.3901C102.278 74.3901 102.689 74.1941 102.978 73.8021C103.268 73.4101 103.412 72.8547 103.412 72.1361V71.8701C103.412 71.1234 103.268 70.5494 102.978 70.1481C102.689 69.7467 102.278 69.5461 101.746 69.5461C101.233 69.5461 100.832 69.7327 100.542 70.1061C100.253 70.4701 100.099 70.9881 100.08 71.6601V72.0521ZM107.523 69.7281H106.403V68.4681H107.523V67.7401C107.523 66.9281 107.751 66.3027 108.209 65.8641C108.666 65.4161 109.305 65.1921 110.127 65.1921C110.472 65.1921 110.817 65.2387 111.163 65.3321L111.149 66.6761C111.018 66.6294 110.808 66.6061 110.519 66.6061C110.136 66.6061 109.842 66.7041 109.637 66.9001C109.441 67.0961 109.343 67.3807 109.343 67.7541V68.4681H110.911V69.7281H109.343V75.6641H107.523V69.7281ZM114.391 75.6641H112.571V68.2721H114.391V75.6641ZM112.417 66.3261C112.417 66.0554 112.515 65.8314 112.711 65.6541C112.907 65.4767 113.159 65.3881 113.467 65.3881C113.775 65.3881 114.027 65.4767 114.223 65.6541C114.419 65.8314 114.517 66.0554 114.517 66.3261C114.517 66.5967 114.419 66.8207 114.223 66.9981C114.036 67.1661 113.784 67.2501 113.467 67.2501C113.159 67.2501 112.907 67.1661 112.711 66.9981C112.515 66.8207 112.417 66.5967 112.417 66.3261ZM119.135 75.7901C118.276 75.7901 117.595 75.4681 117.091 74.8241C116.596 74.1801 116.335 73.2701 116.307 72.0941V71.9121C116.307 70.7267 116.554 69.8027 117.049 69.1401C117.553 68.4774 118.253 68.1461 119.149 68.1461C119.952 68.1461 120.582 68.4681 121.039 69.1121V65.2901H122.859V75.6641H121.221L121.137 74.6981C120.67 75.4261 120.003 75.7901 119.135 75.7901ZM118.127 72.0661C118.136 72.8221 118.262 73.3961 118.505 73.7881C118.757 74.1801 119.121 74.3761 119.597 74.3761C120.297 74.3761 120.778 74.0681 121.039 73.4521V70.4841C120.787 69.8681 120.311 69.5601 119.611 69.5601C119.154 69.5601 118.799 69.7421 118.547 70.1061C118.295 70.4701 118.155 71.0021 118.127 71.7021V72.0661ZM135.934 67.1801H132.77V75.6641H130.894V67.1801H127.786V65.7101H135.934V67.1801ZM137.094 68.2721H138.816L138.872 69.4201C139.068 69.0094 139.32 68.6921 139.628 68.4681C139.936 68.2441 140.29 68.1321 140.692 68.1321C140.925 68.1321 141.13 68.1601 141.308 68.2161L141.252 69.8961C141.093 69.8587 140.869 69.8401 140.58 69.8401C140.169 69.8401 139.819 69.9287 139.53 70.1061C139.25 70.2741 139.049 70.5307 138.928 70.8761V75.6641H137.094V68.2721ZM144.74 75.6641H142.92V68.2721H144.74V75.6641ZM142.766 66.3261C142.766 66.0554 142.864 65.8314 143.06 65.6541C143.256 65.4767 143.508 65.3881 143.816 65.3881C144.124 65.3881 144.376 65.4767 144.572 65.6541C144.768 65.8314 144.866 66.0554 144.866 66.3261C144.866 66.5967 144.768 66.8207 144.572 66.9981C144.385 67.1661 144.133 67.2501 143.816 67.2501C143.508 67.2501 143.256 67.1661 143.06 66.9981C142.864 66.8207 142.766 66.5967 142.766 66.3261ZM146.964 68.2721H148.672L148.728 69.1541C148.942 68.8274 149.213 68.5801 149.54 68.4121C149.876 68.2347 150.254 68.1461 150.674 68.1461C151.57 68.1461 152.27 68.4774 152.774 69.1401C153.278 69.8027 153.53 70.7267 153.53 71.9121V72.0241C153.53 73.1814 153.273 74.1007 152.76 74.7821C152.256 75.4541 151.565 75.7901 150.688 75.7901C149.876 75.7901 149.241 75.4774 148.784 74.8521V78.2821H146.964V68.2721ZM148.784 73.4801C149.036 74.0774 149.521 74.3761 150.24 74.3761C150.697 74.3761 151.047 74.1941 151.29 73.8301C151.542 73.4567 151.677 72.9061 151.696 72.1781V71.8981C151.696 71.1327 151.57 70.5541 151.318 70.1621C151.075 69.7607 150.716 69.5601 150.24 69.5601C149.512 69.5601 149.026 69.8494 148.784 70.4281V73.4801Z" fill="white" fill-opacity="0.5"/>
<circle opacity="0.5" cx="9.49814" cy="9.49814" r="9.49814" transform="matrix(-1 0 0 1 368.392 62.166)" fill="white"/>
<circle cx="9.49814" cy="9.49814" r="9.49814" transform="matrix(-1 0 0 1 380 62.166)" fill="white"/>
</g>
<defs>
<filter id="filter0_d_4185_71375" x="0.811116" y="0.144292" width="474.92" height="254.92" filterUnits="userSpaceOnUse" color-interpolation-filters="sRGB">
<feFlood flood-opacity="0" result="BackgroundImageFix"/>
<feColorMatrix in="SourceAlpha" type="matrix" values="0 0 0 0 0 0 0 0 0 0 0 0 0 0 0 0 0 0 127 0" result="hardAlpha"/>
<feMorphology radius="11.1253" operator="dilate" in="SourceAlpha" result="effect1_dropShadow_4185_71375"/>
<feOffset dx="9.27104" dy="19.6042"/>
<feGaussianBlur stdDeviation="29.6673"/>
<feComposite in2="hardAlpha" operator="out"/>
<feColorMatrix type="matrix" values="0 0 0 0 0.0625 0 0 0 0 0.0625 0 0 0 0 0.0625 0 0 0 0.06 0"/>
<feBlend mode="normal" in2="BackgroundImageFix" result="effect1_dropShadow_4185_71375"/>
<feBlend mode="normal" in="SourceGraphic" in2="effect1_dropShadow_4185_71375" result="shape"/>
</filter>
</defs>
</svg>
